<?xml version="1.0" encoding="UTF-8" standalone="no"?>
<!-- Created with Inkscape (http://www.inkscape.org/) -->

<svg
   width="99.865211mm"
   height="95.216827mm"
   viewBox="0 0 99.865211 95.216827"
   version="1.1"
   id="svg1"
   inkscape:version="1.4.3 (0d15f75042, 2025-12-25)"
   sodipodi:docname="favicon-dark.svg"
   xmlns:inkscape="http://www.inkscape.org/namespaces/inkscape"
   xmlns:sodipodi="http://sodipodi.sourceforge.net/DTD/sodipodi-0.dtd"
   xmlns="http://www.w3.org/2000/svg"
   xmlns:svg="http://www.w3.org/2000/svg">
  <sodipodi:namedview
     id="namedview1"
     pagecolor="#ffffff"
     bordercolor="#999999"
     borderopacity="1"
     inkscape:showpageshadow="2"
     inkscape:pageopacity="0"
     inkscape:pagecheckerboard="0"
     inkscape:deskcolor="#d1d1d1"
     inkscape:document-units="mm"
     inkscape:zoom="1.444318"
     inkscape:cx="177.59247"
     inkscape:cy="218.4422"
     inkscape:window-width="1860"
     inkscape:window-height="1164"
     inkscape:window-x="0"
     inkscape:window-y="0"
     inkscape:window-maximized="0"
     inkscape:current-layer="g6">
    <inkscape:page
       x="0"
       y="0"
       width="99.865211"
       height="95.216827"
       id="page2"
       margin="0"
       bleed="0" />
  </sodipodi:namedview>
  <defs
     id="defs1" />
  <g
     inkscape:label="Layer 1"
     inkscape:groupmode="layer"
     id="layer1">
    <g
       id="g1"
       transform="matrix(0.62056245,0,0,0.62056245,1.1423787,4.2114374)">
      <g
         id="g4"
         transform="translate(0,11.899187)">
        <g
           id="g6"
           inkscape:export-filename="favicon.svg"
           inkscape:export-xdpi="96"
           inkscape:export-ydpi="96"
           transform="matrix(1.2653472,0,0,1.1993183,-20.9997,-16.211809)"
           style="fill:#ffffff">
          <g
             id="g3"
             transform="matrix(1.3544049,0,0,1.3544049,-56.863702,-27.20855)"
             style="fill:#ffffff"
             inkscape:export-filename="favicon-dark.svg"
             inkscape:export-xdpi="96"
             inkscape:export-ydpi="96">
            <path
               d="m 107.08245,91.528764 c 0.28321,-0.283211 0.47202,-0.660828 0.47202,-1.132848 0,-0.566424 -0.47202,-1.321656 -1.22725,-1.321656 -0.18881,0 -0.47202,0.0944 -0.66083,0.283212 l -11.894909,9.912423 -11.7061,-9.912423 c -0.1888,-0.188808 -0.37761,-0.283212 -0.66082,-0.283212 -0.75524,0 -1.22726,0.660828 -1.22726,1.41606 0,0.377616 0.0944,0.755233 0.47202,1.038444 l 11.23408,9.345996 -11.23408,9.4404 c -0.28321,0.28321 -0.47202,0.75523 -0.47202,1.13285 0,0.56642 0.47202,1.22725 1.13285,1.22725 0.28321,0 0.56643,-0.0944 0.75523,-0.18881 l 11.7061,-9.91242 11.894909,9.91242 c 0.18881,0.0944 0.47202,0.18881 0.66083,0.18881 0.56642,0 1.22725,-0.56642 1.22725,-1.32166 0,-0.37761 -0.18881,-0.84963 -0.47202,-1.03844 l -11.234079,-9.4404 z"
               id="path1-5"
               style="fill:#ffffff;stroke-width:0.0944041" />
            <path
               d="m 107.50521,58.833534 v -7.005922 c 5.45811,-0.162931 10.10156,-1.547819 12.54549,-3.747357 l -1.62928,-1.792207 c -2.03661,1.792207 -6.10982,2.932707 -10.91621,3.095638 V 18.916074 h -2.44392 V 49.302218 C 100.2549,49.139293 96.181687,47.91733 94.063617,46.125117 l -1.62928,1.792213 12.626953,11.975236 v 7.250315 c -5.458103,0.244394 -10.101563,1.629288 -12.626953,3.910283 l 1.62928,1.792213 c 2.11807,-1.792213 6.191283,-3.014176 10.997673,-3.25857 v 20.610445 h 2.44392 V 69.586807 c 4.80639,0.162931 8.8796,1.303425 10.91621,3.095639 l 1.62928,-1.792214 z m 0,8.309347 v -4.887852 l 5.78396,5.539565 c -1.79221,-0.407319 -3.74736,-0.570245 -5.78396,-0.651713 z M 99.277327,51.012969 c 1.710753,0.407324 3.665893,0.651712 5.783963,0.733181 v 4.806383 z"
               id="path1-8"
               style="fill:#ffffff;stroke-width:0.0814644" />
          </g>
        </g>
      </g>
    </g>
  </g>
</svg>
