<?xml version="1.0" encoding="UTF-8" standalone="no"?>
<!-- Created with Inkscape (http://www.inkscape.org/) -->

<svg
   width="90.367706mm"
   height="48.18642mm"
   viewBox="0 0 90.367706 48.18642"
   version="1.1"
   id="svg1"
   inkscape:version="1.4.3 (0d15f75042, 2025-12-25)"
   sodipodi:docname="logo-dark.svg"
   xmlns:inkscape="http://www.inkscape.org/namespaces/inkscape"
   xmlns:sodipodi="http://sodipodi.sourceforge.net/DTD/sodipodi-0.dtd"
   xmlns="http://www.w3.org/2000/svg"
   xmlns:svg="http://www.w3.org/2000/svg">
  <sodipodi:namedview
     id="namedview1"
     pagecolor="#ffffff"
     bordercolor="#999999"
     borderopacity="1"
     inkscape:showpageshadow="2"
     inkscape:pageopacity="0"
     inkscape:pagecheckerboard="0"
     inkscape:deskcolor="#d1d1d1"
     inkscape:document-units="mm"
     inkscape:zoom="1.5723626"
     inkscape:cx="100.80372"
     inkscape:cy="114.7954"
     inkscape:window-width="1860"
     inkscape:window-height="1164"
     inkscape:window-x="0"
     inkscape:window-y="0"
     inkscape:window-maximized="0"
     inkscape:current-layer="g4">
    <inkscape:page
       x="0"
       y="0"
       width="90.367706"
       height="48.18642"
       id="page2"
       margin="0"
       bleed="0" />
  </sodipodi:namedview>
  <defs
     id="defs1" />
  <g
     inkscape:label="Layer 1"
     inkscape:groupmode="layer"
     id="layer1"
     transform="translate(-4.816145,-6.987053)">
    <g
       id="g1"
       transform="matrix(0.62056245,0,0,0.62056245,1.1423787,4.2114374)">
      <g
         id="g4"
         transform="translate(0,-6.7024619)">
        <g
           id="g2"
           transform="translate(-3.5630553)"
           style="fill:#ffffff">
          <path
             d="M 155.10538,88.824797 V 86.417054 H 9.4831142 v 2.407743 z m 0,-18.810465 V 67.606595 H 9.4831142 v 2.407737 z m 0,-18.810461 V 48.796134 H 9.4831142 v 2.407737 z m 0,-18.810461 V 29.985667 H 9.4831142 v 2.407743 z m 0,-18.81047 V 11.175203 H 9.4831142 v 2.407737 z"
             id="path1-2"
             style="stroke-width:0.120868;fill:#ffffff" />
        </g>
        <g
           id="g3"
           transform="translate(-21.382809)">
          <g
             id="g5"
             transform="translate(0,-22.170747)"
             style="fill:#ffffff">
            <g
               id="g6"
               transform="translate(-4.0473382)"
               style="fill:#ffffff">
              <path
                 d="m 105.75877,93.990688 c 0.19561,-0.195611 0.32601,-0.456426 0.32601,-0.782445 0,-0.391223 -0.32601,-0.912854 -0.84764,-0.912854 -0.13042,0 -0.32603,0.0652 -0.45644,0.195612 l -8.215673,6.846405 -8.085273,-6.846405 c -0.130401,-0.130407 -0.26081,-0.195612 -0.456421,-0.195612 -0.521636,0 -0.847655,0.456427 -0.847655,0.978057 0,0.260816 0.0652,0.521631 0.326019,0.717242 l 7.759255,6.455172 -7.759255,6.52039 c -0.195609,0.19561 -0.326019,0.52162 -0.326019,0.78245 0,0.39121 0.326019,0.84764 0.782447,0.84764 0.19561,0 0.391228,-0.0651 0.521629,-0.1304 l 8.085273,-6.84641 8.215673,6.84641 c 0.13041,0.0651 0.32602,0.1304 0.45644,0.1304 0.39121,0 0.84764,-0.39122 0.84764,-0.91285 0,-0.26082 -0.1304,-0.58684 -0.32601,-0.71724 l -7.759258,-6.52039 z"
                 id="path1-5"
                 style="stroke-width:0.0652038;fill:#ffffff" />
              <path
                 d="m 117.65432,57.053229 -3.9721,-3.972081 -7.53327,7.533256 v 33.009391 h -2.05451 V 62.668938 L 92.520601,74.174281 91.082437,72.736111 104.09444,59.724116 V 33.70011 h 2.05451 v 23.969473 l 6.09511,-6.095093 -3.97209,-3.972081 12.87503,-3.424214 z"
                 id="path1"
                 style="stroke-width:0.0684846;fill:#ffffff" />
            </g>
          </g>
        </g>
        <text
           xml:space="preserve"
           style="font-size:28.8988px;writing-mode:lr-tb;direction:ltr;fill:#003380;stroke-width:0.677314"
           x="5.7010465"
           y="144.55881"
           id="text1"
           inkscape:export-filename="logo.png"
           inkscape:export-xdpi="900"
           inkscape:export-ydpi="900"><tspan
             sodipodi:role="line"
             id="tspan1"
             style="font-style:normal;font-variant:normal;font-weight:bold;font-stretch:normal;font-size:28.8988px;font-family:'Proxima Nova';-inkscape-font-specification:'Proxima Nova Bold';fill:#003380;stroke-width:0.677314"
             x="5.7010465"
             y="144.55881">OpenScofo</tspan></text>
      </g>
    </g>
  </g>
</svg>
