<?xml version="1.0" encoding="UTF-8" standalone="no"?>
<svg
   width="32.630913mm"
   height="31.28401mm"
   viewBox="0 0 32.630915 31.28401"
   version="1.1"
   id="svg60"
   inkscape:version="1.4.4 (dcaf3e7d9e, 2026-05-05)"
   sodipodi:docname="sc.svg"
   inkscape:export-filename="/home/bmcfee/git/librosa_media/logo/librosa_logo_simpler-text-rotated.png"
   inkscape:export-xdpi="90.130859"
   inkscape:export-ydpi="90.130859"
   xmlns:inkscape="http://www.inkscape.org/namespaces/inkscape"
   xmlns:sodipodi="http://sodipodi.sourceforge.net/DTD/sodipodi-0.dtd"
   xmlns="http://www.w3.org/2000/svg"
   xmlns:svg="http://www.w3.org/2000/svg"
   xmlns:rdf="http://www.w3.org/1999/02/22-rdf-syntax-ns#"
   xmlns:cc="http://creativecommons.org/ns#"
   xmlns:dc="http://purl.org/dc/elements/1.1/">
  <defs
     id="defs54" />
  <sodipodi:namedview
     id="base"
     pagecolor="#ffffff"
     bordercolor="#666666"
     borderopacity="1.0"
     inkscape:pageopacity="0.0"
     inkscape:pageshadow="2"
     inkscape:zoom="1.4"
     inkscape:cx="-15.714286"
     inkscape:cy="139.28571"
     inkscape:document-units="mm"
     inkscape:current-layer="layer1"
     showgrid="false"
     inkscape:pagecheckerboard="true"
     showguides="false"
     inkscape:guide-bbox="true"
     inkscape:snap-object-midpoints="true"
     fit-margin-top="0"
     fit-margin-left="0"
     fit-margin-right="0"
     fit-margin-bottom="0"
     inkscape:window-width="1860"
     inkscape:window-height="1163"
     inkscape:window-x="0"
     inkscape:window-y="0"
     inkscape:window-maximized="0"
     inkscape:showpageshadow="2"
     inkscape:deskcolor="#d1d1d1">
    <inkscape:grid
       type="axonomgrid"
       id="grid62"
       units="mm"
       empspacing="3"
       spacingy="1"
       gridanglex="30"
       gridanglez="30"
       originx="-30.275621"
       originy="-28.525276" />
    <sodipodi:guide
       position="30.346164,31.474721"
       orientation="0,1"
       id="guide68"
       inkscape:locked="false" />
    <sodipodi:guide
       position="29.480138,31.474721"
       orientation="1,0"
       id="guide149"
       inkscape:locked="false" />
    <inkscape:page
       x="8.2914557e-30"
       y="0"
       width="32.630917"
       height="31.28401"
       id="page2"
       margin="0"
       bleed="0" />
  </sodipodi:namedview>
  <metadata
     id="metadata57">
    <rdf:RDF>
      <cc:Work
         rdf:about="">
        <dc:format>image/svg+xml</dc:format>
        <dc:type
           rdf:resource="http://purl.org/dc/dcmitype/StillImage" />
        <dc:title />
      </cc:Work>
    </rdf:RDF>
  </metadata>
  <g
     inkscape:label="Layer 1"
     inkscape:groupmode="layer"
     id="layer1"
     transform="translate(-30.275616,-237.19073)">
    <path
       d="M 44.41716,267.27142 32.152384,260.7362 v -16.15182 l 1.281364,0.68277 v 14.31864 l 9.702048,5.16969 3.1e-5,-12.48546 -7.416896,-3.95205 v 8.93648 l 5.195781,2.76855 v -5.40325 l -2.85554,-1.52155 v 1.86991 l 1.604459,0.85492 v 1.83317 l -2.885823,-1.53769 v -5.53625 l 5.418269,2.88709 v 9.06958 l -7.75851,-4.13408 v -12.60282 l 9.979624,5.31759 z m 0.958179,-18.41733 12.326242,-3.4773 -9.549157,-4.82716 -9.582853,2.70337 6.872022,3.47385 6.692326,-1.88794 -4.19482,-2.12051 -3.564398,1.00554 1.388993,0.70214 1.981733,-0.55905 1.416834,0.71622 -3.526996,0.99498 -4.094035,-2.06956 6.417522,-1.81042 6.771169,3.42287 -9.16091,2.58434 -9.460204,-4.78223 11.983396,-3.38057 10.849234,5.48436 1.582668,-0.44648 -12.238229,-6.1865 -15.148727,4.27353 z m 15.654389,-1.9364 -14.453649,4.20192 v 16.15181 l 1.510047,-0.439 v -14.31864 l 11.433556,-3.32392 3.6e-5,12.48546 -8.740578,2.54103 v -8.93648 l 6.123064,-1.78008 v 5.40325 l -3.365165,0.97831 v -1.86992 l 1.890804,-0.54969 v -1.83317 l -3.40085,0.98869 v 5.53625 l 6.385257,-1.8563 v -9.06958 l -9.143157,2.65807 v 12.60281 l 11.760671,-3.41901 z"
       id="path1"
       style="stroke-width:0.0564012" />
  </g>
</svg>
