<?xml version="1.0" encoding="UTF-8" standalone="no"?>
<svg
   width="2552.0022"
   height="1854.0759"
   viewBox="0 0 2552.0022 1854.076"
   version="1.2"
   id="svg45"
   xmlns="http://www.w3.org/2000/svg"
   xmlns:svg="http://www.w3.org/2000/svg">
  <defs
     id="defs45" />
  <title
     id="title1">note</title>
  <desc
     id="desc1">Generated by MuseScore Studio 4.4.2</desc>
  <polyline
     class="StaffLines"
     fill="none"
     stroke="#000000"
     stroke-width="9.08"
     stroke-linejoin="bevel"
     points="212.598,701.478 2764.6,701.478"
     id="polyline1"
     transform="translate(-212.598,-604.22441)" />
  <polyline
     class="StaffLines"
     fill="none"
     stroke="#000000"
     stroke-width="9.08"
     stroke-linejoin="bevel"
     points="212.598,771.318 2764.6,771.318"
     id="polyline2"
     transform="translate(-212.598,-604.22441)" />
  <polyline
     class="StaffLines"
     fill="none"
     stroke="#000000"
     stroke-width="9.08"
     stroke-linejoin="bevel"
     points="212.598,841.158 2764.6,841.158"
     id="polyline3"
     transform="translate(-212.598,-604.22441)" />
  <polyline
     class="StaffLines"
     fill="none"
     stroke="#000000"
     stroke-width="9.08"
     stroke-linejoin="bevel"
     points="212.598,910.998 2764.6,910.998"
     id="polyline4"
     transform="translate(-212.598,-604.22441)" />
  <polyline
     class="StaffLines"
     fill="none"
     stroke="#000000"
     stroke-width="9.08"
     stroke-linejoin="bevel"
     points="212.598,980.838 2764.6,980.838"
     id="polyline5"
     transform="translate(-212.598,-604.22441)" />
  <polyline
     class="StaffLines"
     fill="none"
     stroke="#000000"
     stroke-width="9.08"
     stroke-linejoin="bevel"
     points="212.598,2064.97 2764.6,2064.97"
     id="polyline6"
     transform="translate(-212.598,-604.22441)" />
  <polyline
     class="StaffLines"
     fill="none"
     stroke="#000000"
     stroke-width="9.08"
     stroke-linejoin="bevel"
     points="212.598,2134.81 2764.6,2134.81"
     id="polyline7"
     transform="translate(-212.598,-604.22441)" />
  <polyline
     class="StaffLines"
     fill="none"
     stroke="#000000"
     stroke-width="9.08"
     stroke-linejoin="bevel"
     points="212.598,2204.65 2764.6,2204.65"
     id="polyline8"
     transform="translate(-212.598,-604.22441)" />
  <polyline
     class="StaffLines"
     fill="none"
     stroke="#000000"
     stroke-width="9.08"
     stroke-linejoin="bevel"
     points="212.598,2274.49 2764.6,2274.49"
     id="polyline9"
     transform="translate(-212.598,-604.22441)" />
  <polyline
     class="StaffLines"
     fill="none"
     stroke="#000000"
     stroke-width="9.08"
     stroke-linejoin="bevel"
     points="212.598,2344.33 2764.6,2344.33"
     id="polyline10"
     transform="translate(-212.598,-604.22441)" />
  <path
     class="MeasureNumber"
     d="m 19.390996,1312.7856 -1.031,1.85 c -1.61,2.76 -1.922,3 -3.969,3.03 H 5.1249963 c 0.954,-1.27 2.719,-2.75 5.9069997,-5 5.281,-3.63 5.64,-3.88 6.765,-4.75 3.203,-2.49 4.516,-4.85 4.516,-8 0,-4.21 -3.109,-7 -7.719,-7 -5.1089997,0 -9.5469997,3.76 -9.5469997,8.12 0,2.24 1.188,3.67 3.11,3.67 1.437,0 2.5619997,-1.07 2.5619997,-2.56 0,-1.03 -0.515,-1.72 -1.8439997,-2.44 -0.953,-0.48 -1.109,-0.67 -1.109,-1.15 0,-1.72 2.9529997,-3.64 5.6719997,-3.64 2.797,0 4.687,1.87 4.687,4.68 0,2.99 -1.328,5.19 -4.921,8.32 -10.6409997,9.23 -12.24999972,10.92 -12.60999972,13.15 H 17.749996 l 3.094,-7.72 -1.453,-0.56"
     id="path10" />
  <path
     class="TieSegment"
     stroke="#000000"
     stroke-width="6.98"
     stroke-linecap="round"
     stroke-linejoin="round"
     fill-rule="evenodd"
     d="m 965.352,1758.2656 c 36.5,41.44 146,41.44 182.5,0 -36.5,53.68 -146,53.68 -182.5,0"
     id="path11" />
  <path
     class="TieSegment"
     stroke="#000000"
     stroke-width="6.98"
     stroke-linecap="round"
     stroke-linejoin="round"
     fill-rule="evenodd"
     d="m 1326.442,429.69559 c 53.53,48.1 214.13,48.1 267.66,0 -53.53,64.32 -214.13,64.32 -267.66,0"
     id="path12" />
  <polyline
     class="BarLine"
     fill="none"
     stroke="#000000"
     stroke-width="11.17"
     stroke-linejoin="bevel"
     points="2696.16,2060.43 2696.16,2348.87"
     id="polyline12"
     transform="translate(-212.598,-604.22441)" />
  <polyline
     class="BarLine"
     fill="none"
     stroke="#000000"
     stroke-width="34.92"
     stroke-linejoin="bevel"
     points="2747.14,2060.43 2747.14,2348.87"
     id="polyline13"
     transform="translate(-212.598,-604.22441)" />
  <polyline
     class="BarLine"
     fill="none"
     stroke="#000000"
     stroke-width="11.17"
     stroke-linejoin="bevel"
     points="2759.01,696.939 2759.01,985.378"
     id="polyline14"
     transform="translate(-212.598,-604.22441)" />
  <polyline
     class="BarLine"
     fill="none"
     stroke="#000000"
     stroke-width="11.17"
     stroke-linejoin="bevel"
     points="1916.46,2060.43 1916.46,2348.87"
     id="polyline15"
     transform="translate(-212.598,-604.22441)" />
  <path
     class="Accidental"
     d="m 891.64898,1672.2298 c 1.96446,-0.8295 3.36126,-3.0993 3.36126,-4.7578 v -19.8173 c 0,-1.3968 -0.873,-2.2698 -1.96446,-2.2698 -0.56738,0 -0.82914,0 -1.3968,0.3057 0,0 -5.5872,2.2262 -6.984,2.4879 -1.96418,0 -3.92836,-1.3968 -3.92836,-3.6227 v -34.0909 c 0,-1.6585 -1.65884,-3.0553 -3.88478,-3.0553 -2.7936,0 -4.49602,1.3968 -4.49602,3.0553 v 36.3168 c -0.26204,2.7936 -1.09118,6.4602 -3.62302,8.1191 -3.36098,1.9642 -12.83296,5.8489 -17.59094,6.984 -2.5317,0 -3.36106,-3.361 -3.36106,-5.5872 v -33.5232 c 0,-1.7024 -1.96424,-3.0992 -3.9285,-3.0992 -2.7936,0 -4.4523,1.3968 -4.4523,3.0992 v 37.7136 c 0,3.9283 -1.6587,6.7219 -3.36104,7.5514 -1.6587,0.8294 -7.2459,3.0556 -7.2459,3.0556 -1.96426,0.5674 -3.36106,2.7936 -3.36106,4.4957 v 19.8173 c 0,1.6587 0.82935,2.5317 2.5317,2.5317 l 0.5238,-0.3056 c 0.30556,0 4.49596,-1.6587 6.7221,-2.7936 l 0.2619,-0.2619 c 2.2698,0 3.9285,2.7936 3.9285,5.0198 v 27.6741 c 0,3.0555 -1.3968,5.5872 -3.0555,6.4165 -1.70234,0.5676 -7.55144,3.0556 -7.55144,3.0556 -1.96426,0.5674 -3.36106,2.7936 -3.36106,4.496 v 19.817 c 0,1.6588 0.82935,2.5318 2.5317,2.5318 l 0.5238,-0.3056 c 0.30556,0 4.1904,-1.6588 6.7221,-2.488 0.2619,-0.3056 0.56746,-0.3056 0.82936,-0.3056 1.96424,0 3.36104,3.0992 3.36104,4.496 v 34.3524 c 0,1.6588 1.6587,3.0556 3.62296,3.0556 2.7936,0 4.75784,-1.3968 4.75784,-3.0556 v -38.8484 c 0,-3.623 1.3968,-5.5872 2.7936,-6.1546 l 17.02364,-6.984 c 0,0 0.30534,0 0.30534,0 l 0.56766,-0.262 c 2.48798,0 3.88478,3.361 3.88478,5.0198 v 34.92 c 0,1.7024 1.70242,3.0992 3.62302,3.0992 3.09894,0 4.75778,-1.3968 4.75778,-3.0992 v -39.6778 c 0,-2.2262 1.13476,-5.5872 3.09922,-6.4166 1.9206,-0.8294 7.81314,-3.0556 7.81314,-3.0556 1.96446,-0.8292 3.36126,-3.099 3.36126,-4.7578 v -19.8171 c 0,-1.3968 -0.873,-2.2698 -1.96446,-2.2698 -0.56738,0 -0.82914,0 -1.3968,0.3056 l -7.28934,2.7936 c -1.65884,0 -3.62302,-1.7024 -3.62302,-5.0198 v -26.0154 c 0,-1.9206 1.3968,-7.2459 3.62302,-8.0753 l 7.28934,-2.7936 m -19.29316,45.527 c -1.65884,5.5872 -14.79742,11.1744 -21.21396,11.1744 -1.70236,0 -3.09916,-0.5674 -3.36106,-1.3968 -0.56744,-1.1349 -0.82934,-7.2459 -0.82934,-13.968 0,-8.6427 0.2619,-18.4203 0.82934,-20.6901 0.56746,-4.7142 13.40062,-10.607 20.38462,-10.607 1.96418,0 3.62302,0.5675 4.1904,1.7024 0.56738,1.3968 1.13476,8.3808 1.13476,15.8886 0,7.5514 -0.56738,15.3648 -1.13476,17.8965"
     id="path15"
     style="stroke-width:2.7936" />
  <path
     class="Accidental"
     d="m 1900.3631,284.42479 c 0.8293,1.13504 1.6587,1.3968 2.488,1.3968 0.873,0 1.7024,-0.56738 1.7024,-0.56738 8.3808,-4.75778 15.0592,-12.26558 22.0433,-17.02364 24.8804,-17.32898 33.5232,-34.35248 33.5232,-47.22925 0,-15.93237 -12.2658,-25.97173 -25.1424,-26.80115 -4.7142,0 -11.4364,2.22622 -15.3649,4.75778 -1.6587,1.3968 -4.7142,3.88506 -6.111,3.88506 -0.5674,0 -0.873,0 -1.3968,-0.26204 -1.9642,-0.82942 -3.0991,-2.7936 -3.0991,-4.75778 0.3055,-6.15458 1.9642,-73.20098 1.9642,-78.78818 0,-3.05564 -2.5317,-4.75806 -5.3253,-4.75806 -3.8848,0 -8.3808,2.7936 -8.6427,7.81342 0,0 1.1349,159.54082 3.3611,162.33442 m 9.7776,-24.8805 c 0,0 -0.8294,-16.7616 -0.8294,-27.936 0,-4.4523 0.2619,-7.81337 0.5238,-8.9046 1.9643,-5.5872 13.1387,-13.7061 19.5553,-13.7061 8.1188,0 11.4798,9.21013 11.4798,16.19413 0,15.10293 -12.8766,30.16217 -24.8804,37.71363 -1.0913,0.56744 -1.9643,0.82934 -2.7936,0.82934 -2.4881,0 -3.0555,-2.7936 -3.0555,-4.1904"
     id="path16"
     style="stroke-width:2.7936" />
  <polyline
     class="LedgerLine"
     fill="none"
     stroke="#000000"
     stroke-width="11.17"
     stroke-linejoin="bevel"
     points="754.12,1050.68 901.876,1050.68"
     id="polyline16"
     transform="translate(-212.598,-604.22441)" />
  <polyline
     class="Stem"
     fill="none"
     stroke="#000000"
     stroke-width="8.38"
     stroke-linejoin="bevel"
     points="1009.4,2332.6 1009.4,2134.47"
     id="polyline17"
     transform="translate(-212.598,-604.22441)" />
  <polyline
     class="Stem"
     fill="none"
     stroke="#000000"
     stroke-width="8.38"
     stroke-linejoin="bevel"
     points="714.704,2262.76 714.704,2030.05"
     id="polyline18"
     transform="translate(-212.598,-604.22441)" />
  <polyline
     class="Stem"
     fill="none"
     stroke="#000000"
     stroke-width="8.38"
     stroke-linejoin="bevel"
     points="1703.88,2367.52 1703.88,2134.81"
     id="polyline19"
     transform="translate(-212.598,-604.22441)" />
  <polyline
     class="Stem"
     fill="none"
     stroke="#000000"
     stroke-width="8.38"
     stroke-linejoin="bevel"
     points="1212.72,2297.68 1212.72,2117.7"
     id="polyline20"
     transform="translate(-212.598,-604.22441)" />
  <polyline
     class="Stem"
     fill="none"
     stroke="#000000"
     stroke-width="8.38"
     stroke-linejoin="bevel"
     points="1409.18,2297.68 1409.18,2064.97"
     id="polyline21"
     transform="translate(-212.598,-604.22441)" />
  <polyline
     class="Stem"
     fill="none"
     stroke="#000000"
     stroke-width="8.38"
     stroke-linejoin="bevel"
     points="2559.5,864.345 2559.5,666.306"
     id="polyline22"
     transform="translate(-212.598,-604.22441)" />
  <polyline
     class="Stem"
     fill="none"
     stroke="#000000"
     stroke-width="8.38"
     stroke-linejoin="bevel"
     points="869.749,1038.95 869.749,806.238"
     id="polyline23"
     transform="translate(-212.598,-604.22441)" />
  <polyline
     class="Stem"
     fill="none"
     stroke="#000000"
     stroke-width="8.38"
     stroke-linejoin="bevel"
     points="2277.87,829.425 2277.87,649.351"
     id="polyline24"
     transform="translate(-212.598,-604.22441)" />
  <polyline
     class="Stem"
     fill="none"
     stroke="#000000"
     stroke-width="8.38"
     stroke-linejoin="bevel"
     points="1855.43,969.105 1855.43,736.398"
     id="polyline25"
     transform="translate(-212.598,-604.22441)" />
  <polyline
     class="Stem"
     fill="none"
     stroke="#000000"
     stroke-width="8.38"
     stroke-linejoin="bevel"
     points="1292.19,1004.03 1292.19,788.526"
     id="polyline26"
     transform="translate(-212.598,-604.22441)" />
  <polyline
     class="Stem"
     fill="none"
     stroke="#000000"
     stroke-width="8.38"
     stroke-linejoin="bevel"
     points="1573.81,969.105 1573.81,771.571"
     id="polyline27"
     transform="translate(-212.598,-604.22441)" />
  <path
     class="Note"
     d="m 444.57622,1709.376 c 27.67396,0 61.76482,-25.7098 61.76482,-52.2491 0,-15.6267 -12.5712,-25.9717 -30.46784,-25.9717 -34.09064,0 -61.4592,25.4043 -61.4592,52.2491 0,16.1941 13.40056,25.9717 30.16222,25.9717"
     id="path27"
     style="stroke-width:2.7936" />
  <path
     class="Note"
     d="m 1139.0542,1744.296 c 27.674,0 61.7648,-25.7098 61.7648,-52.2491 0,-15.6267 -12.5712,-25.9717 -30.4678,-25.9717 -34.0906,0 -61.4592,25.4043 -61.4592,52.2491 0,16.1941 13.4006,25.9717 30.1622,25.9717"
     id="path28"
     style="stroke-width:2.7936" />
  <path
     class="Note"
     d="m 599.62022,485.56599 c 27.67396,0 61.76482,-25.70984 61.76482,-52.24907 0,-15.62675 -12.5712,-25.97173 -30.46784,-25.97173 -34.09064,0 -61.4592,25.4043 -61.4592,52.24906 0,16.19414 13.40056,25.97174 30.16222,25.97174"
     id="path29"
     style="stroke-width:2.7936" />
  <path
     class="Note"
     d="m 942.59422,1744.296 c 27.67396,0 61.76478,-25.7098 61.76478,-52.2491 0,-15.6267 -12.57116,-25.9717 -30.4678,-25.9717 -34.09064,0 -61.4592,25.4043 -61.4592,52.2491 0,16.1941 13.40056,25.9717 30.16222,25.9717"
     id="path30"
     style="stroke-width:2.7936" />
  <path
     class="Note"
     d="m 1022.0542,450.64599 c 27.674,0 61.7648,-25.70984 61.7648,-52.24907 0,-15.62675 -12.5712,-25.97173 -30.4678,-25.97173 -34.0906,0 -61.4592,25.4043 -61.4592,52.24906 0,16.19414 13.4006,25.97174 30.1622,25.97174"
     id="path31"
     style="stroke-width:2.7936" />
  <path
     class="Note"
     d="m 739.26922,1779.216 c 27.67396,0 61.76482,-25.7098 61.76482,-52.2491 0,-15.6267 -12.5712,-25.9717 -30.46784,-25.9717 -34.09064,0 -61.4592,25.4043 -61.4592,52.2491 0,16.1941 13.40056,25.9717 30.16222,25.9717"
     id="path32"
     style="stroke-width:2.7936" />
  <path
     class="Note"
     d="m 1862.4016,1701.8246 c -40.5072,0 -65.6496,17.0671 -65.6496,37.7135 0,20.3846 17.3291,38.5431 62.5942,38.5431 49.7172,0 65.6496,-17.2855 65.6496,-38.5431 0,-21.5194 -34.3526,-37.7135 -62.5942,-37.7135 m -7.8134,6.984 c 20.6902,0 37.4518,22.3487 37.4518,40.8127 0,15.3648 -9.5158,21.4759 -23.2218,21.4759 -20.1226,0 -39.3724,-23.1782 -39.3724,-42.7335 0,-15.6267 10.869,-19.5551 25.1424,-19.5551"
     id="path33"
     style="stroke-width:2.7936" />
  <path
     class="Note"
     d="m 1433.7442,1814.136 c 27.674,0 61.7648,-25.7098 61.7648,-52.2491 0,-15.6267 -12.5712,-25.9717 -30.4678,-25.9717 -34.0906,0 -61.4592,25.4043 -61.4592,52.2491 0,16.1941 13.4006,25.9717 30.1622,25.9717"
     id="path34"
     style="stroke-width:2.7936" />
  <path
     class="Note"
     d="m 1303.6842,415.72399 c 27.674,0 61.7648,-25.70984 61.7648,-52.24907 0,-15.62675 -12.5712,-25.97173 -30.4678,-25.97173 -34.0906,0 -61.4592,25.4043 -61.4592,52.24906 0,16.19414 13.4006,25.97174 30.1622,25.97174"
     id="path35"
     style="stroke-width:2.7936" />
  <path
     class="Note"
     d="m 1585.3042,415.72399 c 27.674,0 61.7648,-25.70984 61.7648,-52.24907 0,-15.62675 -12.5712,-25.97173 -30.4678,-25.97173 -34.0906,0 -61.4592,25.4043 -61.4592,52.24906 0,16.19414 13.4006,25.97174 30.1622,25.97174"
     id="path36"
     style="stroke-width:2.7936" />
  <path
     class="Note"
     d="m 2007.7442,276.04399 c 27.674,0 61.7648,-25.70984 61.7648,-52.24907 0,-15.62675 -12.5712,-25.97173 -30.4678,-25.97173 -34.0906,0 -61.4592,25.4043 -61.4592,52.24906 0,16.19414 13.4006,25.97174 30.1622,25.97174"
     id="path37"
     style="stroke-width:2.7936" />
  <path
     class="Note"
     d="m 2289.3642,310.96399 c 27.674,0 61.7648,-25.70984 61.7648,-52.24907 0,-15.62675 -12.5712,-25.97173 -30.4678,-25.97173 -34.0906,0 -61.4592,25.4043 -61.4592,52.24906 0,16.19414 13.4006,25.97174 30.1622,25.97174"
     id="path38"
     style="stroke-width:2.7936" />
  <path
     class="Clef"
     d="m 157.44562,190.83919 c -0.56738,-3.36098 0,-3.62302 1.65856,-5.32544 30.16222,-28.19776 53.0784,-63.68514 53.0784,-106.418562 0,-24.31298 -6.72196,-48.3642 -18.1584,-65.127197 C 189.83378,7.8583878 182.58802,-9.0484563e-6 179.4888,-9.0484563e-6 175.60402,-9.0484563e-6 166.9176,7.291287 161.3304,13.445588 c -20.64638,22.8726 -27.36862,57.7926 -27.36862,86.863362 0,16.19422 1.96446,34.35262 3.92864,45.83264 0.5238,3.36098 0.82942,3.88478 -2.53184,6.67838 -40.245164,33.26144 -82.978584,73.20098 -82.978584,129.64055 0,48.62613 33.26144,94.72045 101.704644,94.72045 6.41634,0 13.66238,-0.56738 19.24958,-1.70214 3.09922,-0.5238 3.6666,-0.82942 4.1904,2.53156 3.36098,18.72578 7.55138,43.03904 7.55138,56.17762 0,41.33662 -27.936,46.35616 -44.39198,46.35616 -15.10304,0 -22.39238,-4.45216 -22.39238,-8.11876 0,-1.9206 2.53156,-2.7936 8.94818,-4.7142 8.68642,-2.53184 18.72578,-10.08322 18.72578,-26.27744 0,-15.3648 -9.7776,-28.50338 -26.80096,-28.50338 -18.72606,0 -29.900464,14.79742 -29.900464,32.1264 0,18.1584 10.869064,45.52702 53.078404,45.52702 18.72606,0 55.04286,-8.3808 55.04286,-55.872 0,-15.8886 -5.01982,-42.4278 -8.11904,-59.75678 -0.56738,-3.36126 -0.26176,-3.09922 3.62302,-4.75806 28.24162,-11.1744 46.9674,-34.92 46.9674,-66.47888 0,-35.79314 -26.27744,-67.35188 -67.35202,-67.35188 -7.24576,0 -7.24576,0 -8.07518,-5.01982 l -6.984,-40.5072 M 183.6792,43.302188 c 9.21022,0 16.7616,7.55138 16.7616,22.91618 0,31.03522 -26.5392,56.177622 -48.58238,75.427202 -1.96418,1.70242 -3.09922,1.3968 -3.6666,-2.22622 -1.09118,-7.24576 -1.65884,-16.7616 -1.65884,-25.70978 0,-43.562562 20.12286,-70.407382 37.14622,-70.407382 M 153.25522,233.57261 c 0.82942,5.32516 0.82942,5.01954 -4.1904,6.72196 -24.6186,8.3808 -40.55078,30.42398 -40.55078,54.16972 0,25.1424 13.13858,43.0389 32.16998,49.45552 2.22622,0.82942 5.5872,1.70242 7.5078,1.70242 2.2698,0 3.36098,-1.3968 3.36098,-3.09922 0,-1.96418 -2.22622,-2.7936 -4.1904,-3.62302 -11.74178,-5.01974 -20.12258,-17.0235 -20.12258,-29.90025 0,-15.93225 10.91236,-27.93602 27.936,-32.69399 4.49602,-1.09118 5.0634,-0.82914 5.5872,2.2698 l 13.968,83.24062 c 0.56738,3.05564 0.30562,3.05564 -3.88478,3.88506 -4.49602,0.873 -10.08322,1.3968 -15.67042,1.3968 -48.888,0 -80.447024,-27.063 -80.447024,-65.91164 0,-16.4997 2.7936,-38.54302 25.971824,-64.82018 16.7616,-18.72606 29.63842,-29.07104 42.777,-39.67806 2.7936,-2.22594 3.3174,-1.96418 3.88478,1.13504 l 5.89282,35.74942 m 19.24958,44.43556 c -0.56738,-3.36098 -0.26176,-4.1904 3.09922,-3.92836 22.61056,1.96418 41.33662,20.95191 41.33662,45.52688 0,17.63474 -10.60702,31.8645 -26.27744,39.67792 -3.36098,1.70242 -3.88478,1.70242 -4.45216,-1.65884 l -13.70624,-79.6176"
     id="path39"
     style="stroke-width:2.7936" />
  <path
     class="Clef"
     d="m 157.44562,1554.3312 c -0.56738,-3.361 0,-3.623 1.65856,-5.3255 30.16222,-28.1977 53.0784,-63.6851 53.0784,-106.4185 0,-24.313 -6.72196,-48.3642 -18.1584,-65.1272 -4.1904,-6.1096 -11.43616,-13.968 -14.53538,-13.968 -3.88478,0 -12.5712,7.2913 -18.1584,13.4456 -20.64638,22.8726 -27.36862,57.7926 -27.36862,86.8633 0,16.1943 1.96446,34.3527 3.92864,45.8327 0.5238,3.361 0.82942,3.8848 -2.53184,6.6784 -40.245164,33.2614 -82.978584,73.2009 -82.978584,129.6405 0,48.6262 33.26144,94.7205 101.704644,94.7205 6.41634,0 13.66238,-0.5674 19.24958,-1.7022 3.09922,-0.5238 3.6666,-0.8294 4.1904,2.5316 3.36098,18.7258 7.55138,43.039 7.55138,56.1776 0,41.3366 -27.936,46.3562 -44.39198,46.3562 -15.10304,0 -22.39238,-4.4522 -22.39238,-8.1188 0,-1.9206 2.53156,-2.7936 8.94818,-4.7142 8.68642,-2.5318 18.72578,-10.0832 18.72578,-26.2774 0,-15.3648 -9.7776,-28.5034 -26.80096,-28.5034 -18.72606,0 -29.900464,14.7974 -29.900464,32.1264 0,18.1584 10.869064,45.527 53.078404,45.527 18.72606,0 55.04286,-8.3808 55.04286,-55.872 0,-15.8886 -5.01982,-42.4278 -8.11904,-59.7568 -0.56738,-3.3612 -0.26176,-3.0992 3.62302,-4.758 28.24162,-11.1744 46.9674,-34.92 46.9674,-66.4789 0,-35.7932 -26.27744,-67.3519 -67.35202,-67.3519 -7.24576,0 -7.24576,0 -8.07518,-5.0198 l -6.984,-40.5072 m 26.23358,-147.537 c 9.21022,0 16.7616,7.5514 16.7616,22.9162 0,31.0352 -26.5392,56.1776 -48.58238,75.4272 -1.96418,1.7024 -3.09922,1.3968 -3.6666,-2.2263 -1.09118,-7.2457 -1.65884,-16.7616 -1.65884,-25.7097 0,-43.5626 20.12286,-70.4074 37.14622,-70.4074 m -30.42398,190.2704 c 0.82942,5.3252 0.82942,5.0195 -4.1904,6.722 -24.6186,8.3808 -40.55078,30.4239 -40.55078,54.1697 0,25.1424 13.13858,43.0389 32.16998,49.4555 2.22622,0.8294 5.5872,1.7024 7.5078,1.7024 2.2698,0 3.36098,-1.3968 3.36098,-3.0992 0,-1.9642 -2.22622,-2.7936 -4.1904,-3.623 -11.74178,-5.0197 -20.12258,-17.0235 -20.12258,-29.9003 0,-15.9322 10.91236,-27.936 27.936,-32.694 4.49602,-1.0911 5.0634,-0.8291 5.5872,2.2698 l 13.968,83.2407 c 0.56738,3.0556 0.30562,3.0556 -3.88478,3.885 -4.49602,0.873 -10.08322,1.3968 -15.67042,1.3968 -48.888,0 -80.447024,-27.063 -80.447024,-65.9116 0,-16.4997 2.7936,-38.543 25.971824,-64.8202 16.7616,-18.7261 29.63842,-29.071 42.777,-39.6781 2.7936,-2.2259 3.3174,-1.9641 3.88478,1.1351 l 5.89282,35.7494 m 19.24958,44.4356 c -0.56738,-3.361 -0.26176,-4.1904 3.09922,-3.9284 22.61056,1.9642 41.33662,20.9519 41.33662,45.5269 0,17.6347 -10.60702,31.8645 -26.27744,39.6779 -3.36098,1.7024 -3.88478,1.7024 -4.45216,-1.6588 l -13.70624,-79.6176"
     id="path40"
     style="stroke-width:2.7936" />
  <path
     class="TimeSig"
     d="m 405.24698,187.80569 v -59.8005 c 0,-2.22622 -0.26176,-4.75778 -3.36098,-4.75778 -2.48798,0 -3.88478,0.56738 -5.5872,2.53156 l -26.5392,32.12645 c -1.13476,1.3968 -2.53156,3.0555 -2.53156,6.41657 v 23.4837 H 329.5143 c 22.34894,-19.0314 67.09012,-82.41134 67.91954,-85.77232 l 0.26176,-0.82942 c 0,-2.531562 -1.96418,-4.190402 -4.1904,-4.190402 -2.48798,0 -13.968,0.5238 -18.98782,0.5238 -5.01954,0 -17.59074,-0.5238 -19.86054,-0.5238 -2.48826,0 -6.41662,0.82942 -6.41662,5.281862 0,34.65796 -27.36862,73.46288 -35.74942,85.20474 l -1.6587,2.22614 c 0,0 0,0.30556 0,0.30556 l -0.30554,0.2619 c -0.56746,1.3968 -0.82936,2.5317 -0.82936,3.36104 0,2.7936 2.22616,4.75778 5.5872,4.75778 h 51.94364 v 17.59102 c 0,7.55138 -6.111,9.7776 -11.1744,9.7776 -4.45244,0 -6.41662,2.53184 -6.41662,5.32544 0,2.7936 1.13476,5.84896 5.32516,5.84896 h 59.49502 c 2.7936,0 5.5872,-1.96418 5.5872,-5.84896 0,-3.92864 -3.36098,-5.5872 -6.15458,-5.5872 -2.7936,0 -8.64284,-1.70242 -8.64284,-10.6506 v -16.45626 h 20.38462 c 2.7936,0 4.1904,-1.96418 4.1904,-5.32522 0,-3.36106 -1.09118,-5.28166 -4.1904,-5.28166 h -20.38462"
     id="path41"
     style="stroke-width:2.7936" />
  <path
     class="TimeSig"
     d="m 405.24698,327.44269 v -59.8005 c 0,-2.22622 -0.26176,-4.75778 -3.36098,-4.75778 -2.48798,0 -3.88478,0.56738 -5.5872,2.53156 l -26.5392,32.12645 c -1.13476,1.3968 -2.53156,3.0555 -2.53156,6.41657 v 23.4837 H 329.5143 c 22.34894,-19.0314 67.09012,-82.41134 67.91954,-85.77232 l 0.26176,-0.82942 c 0,-2.53156 -1.96418,-4.1904 -4.1904,-4.1904 -2.48798,0 -13.968,0.5238 -18.98782,0.5238 -5.01954,0 -17.59074,-0.5238 -19.86054,-0.5238 -2.48826,0 -6.41662,0.82942 -6.41662,5.28186 0,34.65796 -27.36862,73.46288 -35.74942,85.20474 l -1.6587,2.22614 c 0,0 0,0.30556 0,0.30556 l -0.30554,0.2619 c -0.56746,1.3968 -0.82936,2.5317 -0.82936,3.36104 0,2.7936 2.22616,4.75778 5.5872,4.75778 h 51.94364 v 17.59102 c 0,7.55138 -6.111,9.7776 -11.1744,9.7776 -4.45244,0 -6.41662,2.53184 -6.41662,5.32544 0,2.7936 1.13476,5.84896 5.32516,5.84896 h 59.49502 c 2.7936,0 5.5872,-1.96418 5.5872,-5.84896 0,-3.92864 -3.36098,-5.5872 -6.15458,-5.5872 -2.7936,0 -8.64284,-1.70242 -8.64284,-10.6506 v -16.45626 h 20.38462 c 2.7936,0 4.1904,-1.96418 4.1904,-5.32522 0,-3.36106 -1.09118,-5.28166 -4.1904,-5.28166 h -20.38462"
     id="path42"
     style="stroke-width:2.7936" />
  <path
     class="Beam"
     fill-rule="evenodd"
     d="m 792.612,1513.0656 211.7,-17.46 v 35.04 l -211.7,17.46 v -35.04"
     id="path43" />
  <path
     class="Beam"
     fill-rule="evenodd"
     d="m 2061.082,27.382588 290.01,17.46 v 34.983 l -290.01,-17.46 v -34.983"
     id="path44" />
  <path
     class="Beam"
     fill-rule="evenodd"
     d="m 1075.402,167.06259 290,-17.46 v 34.983 l -290,17.46 v -34.983"
     id="path45" />
</svg>
